<svg id="Logo_-_White" data-name="Logo - White" xmlns="http://www.w3.org/2000/svg" viewBox="0 0 60.16 57"><defs><style>.cls-1{fill:#fff;}</style></defs><title>StickDrift_White_Logo</title><path class="cls-1" d="M248.23,168.88c1,0,1.35.52,1.07,1.49l-.19.68a.21.21,0,0,1-.21.17h-1.05c-.1,0-.15-.06-.12-.17l.12-.44c.08-.27,0-.42-.3-.42H247a.53.53,0,0,0-.53.42l-.25.88,2.29.81c.16.06.22.19.16.38l-.55,2a1.88,1.88,0,0,1-1.93,1.49H245c-1,0-1.36-.52-1.07-1.49l.19-.67a.21.21,0,0,1,.21-.17h1.05c.11,0,.15.05.12.17l-.13.44c-.08.28,0,.42.3.42h.56a.52.52,0,0,0,.54-.42l.3-1-2.27-.81a.27.27,0,0,1-.17-.38l.52-1.79a1.89,1.89,0,0,1,1.92-1.49Zm6,0c.11,0,.15.06.12.17l-.29,1a.21.21,0,0,1-.21.17h-1.21L251,176a.2.2,0,0,1-.21.17h-1.09c-.1,0-.15-.05-.12-.17l1.62-5.73H250c-.1,0-.15-.06-.12-.17l.29-1a.21.21,0,0,1,.21-.17Zm-1,7.26c-.11,0-.15-.06-.12-.17l1.93-6.93a.21.21,0,0,1,.21-.17h1.08c.1,0,.15.06.12.17L254.57,176a.21.21,0,0,1-.21.17ZM261,171.5a.21.21,0,0,1-.21.17h-1c-.11,0-.15-.06-.12-.17l.23-.85c.07-.27,0-.42-.3-.42H259a.51.51,0,0,0-.53.42l-1,3.77c-.08.28,0,.42.3.42h.67a.51.51,0,0,0,.53-.42l.24-.88a.2.2,0,0,1,.21-.17h1c.1,0,.15.06.12.17l-.3,1.12a1.86,1.86,0,0,1-1.91,1.49h-1.17c-1,0-1.37-.52-1.1-1.49l1.18-4.27a1.86,1.86,0,0,1,1.92-1.49h1.16c1,0,1.35.52,1.09,1.49Zm3.15,4.65a.17.17,0,0,1-.2-.16l-.63-2.56-.58.74-.48,1.77a.26.26,0,0,1-.27.21h-1c-.14,0-.19-.07-.15-.21l1.85-6.85a.26.26,0,0,1,.26-.21h1c.14,0,.19.07.15.21l-.73,2.7,2.34-2.75a.36.36,0,0,1,.28-.16h1.09c.16,0,.2.11.08.25l-2.6,3.1.91,3.67c0,.13-.05.24-.22.24Zm6.71-7.1a.2.2,0,0,1,.21-.17h2.49c1,0,1.36.53,1.11,1.5l-1.1,4.26a1.82,1.82,0,0,1-1.89,1.49h-2.51c-.11,0-.15-.05-.12-.17Zm.88,5.73a.5.5,0,0,0,.53-.42l1-3.68c.07-.28,0-.43-.31-.43h-1l-1.18,4.52Zm7.6-2.31a1.87,1.87,0,0,1-.9,1.27l0,2.23a.17.17,0,0,1-.19.19h-1c-.1,0-.14-.05-.14-.15l0-2h-.93l-.52,2a.21.21,0,0,1-.21.17h-1c-.1,0-.15-.06-.12-.17l1.78-6.93a.21.21,0,0,1,.21-.17h2.49c1,0,1.36.52,1.12,1.49Zm-1.81.16a.5.5,0,0,0,.52-.42l.4-1.57c.07-.27,0-.42-.31-.42h-1l-.61,2.4Zm2.09,3.53c-.11,0-.15-.06-.13-.17l1.75-6.93a.2.2,0,0,1,.21-.17h1.08c.1,0,.15.06.12.17L280.94,176a.21.21,0,0,1-.21.17Zm8-6.06a.2.2,0,0,1-.21.17h-2.58l-.44,1.77h2c.1,0,.15.06.13.17l-.26,1a.2.2,0,0,1-.21.17h-2L283.4,176a.21.21,0,0,1-.21.17h-1.09c-.11,0-.15-.06-.13-.17l1.73-6.93a.2.2,0,0,1,.21-.17h3.82c.1,0,.15.06.13.17Zm5.11-1.2c.11,0,.15.06.13.17l-.25,1a.2.2,0,0,1-.21.17h-1.21L289.8,176a.19.19,0,0,1-.21.17H288.5c-.1,0-.15-.05-.13-.17l1.39-5.73h-1.21c-.1,0-.15-.06-.13-.17l.25-1a.2.2,0,0,1,.21-.17Zm-50.31,11a3,3,0,0,1,3.07-2.37h1.86c1.54,0,2.16.82,1.72,2.37l-.34,1.22a.34.34,0,0,1-.34.26h-1.56c-.18,0-.24-.1-.19-.26l.23-.81c.12-.43,0-.66-.48-.66h-1.06a.82.82,0,0,0-.85.66l-1.7,6c-.13.44,0,.66.48.66h1.07a.82.82,0,0,0,.86-.66l.41-1.43h-.87c-.18,0-.24-.1-.19-.26l.47-1.64a.32.32,0,0,1,.34-.26H248c.17,0,.24.08.19.26l-1.06,3.75a3,3,0,0,1-3.08,2.37h-1.88c-1.58,0-2.18-.82-1.73-2.37ZM254.29,189c-.15,0-.21-.08-.21-.23l0-2.07H251l-1.1,2.07a.36.36,0,0,1-.33.23H247.9c-.18,0-.24-.1-.14-.28l5.84-11a.36.36,0,0,1,.35-.23h2.3c.15,0,.23.07.22.23l-.24,11c0,.18-.11.28-.31.28Zm0-8.68L252,184.79h2.1Zm15.11-2.83c.22,0,.3.12.25.33l-2.84,10.85a.41.41,0,0,1-.42.33h-1.56c-.22,0-.31-.12-.25-.33l1.7-6.46h-.12l-3.29,6.51a.48.48,0,0,1-.44.28h-1a.26.26,0,0,1-.29-.28l.17-6.51h-.12l-1.74,6.46a.41.41,0,0,1-.42.33h-1.54c-.22,0-.3-.12-.25-.33l2.94-10.85a.41.41,0,0,1,.42-.33h2.19a.25.25,0,0,1,.29.28L263,185.1l3.79-7.33a.47.47,0,0,1,.44-.28ZM268.68,189c-.18,0-.24-.1-.2-.26l2.85-11a.32.32,0,0,1,.33-.26h1.72c.17,0,.24.1.2.26l-2.83,11a.33.33,0,0,1-.34.26Zm13.45-11.51c.17,0,.24.1.2.26l-2.73,11a.33.33,0,0,1-.33.26h-1.33a.22.22,0,0,1-.25-.21l-1.56-6.28-1.58,6.23a.32.32,0,0,1-.33.26h-1.58c-.17,0-.24-.1-.2-.26l2.81-11a.33.33,0,0,1,.33-.26h1.31c.15,0,.22.07.24.21l1.54,6.28,1.56-6.23a.32.32,0,0,1,.33-.26Zm1.34,2.37a2.84,2.84,0,0,1,3-2.37h1.86c1.54,0,2.19.82,1.82,2.37l-.29,1.22a.32.32,0,0,1-.33.26h-1.56c-.18,0-.24-.1-.2-.26l.2-.81c.1-.43-.07-.66-.51-.66h-1.06a.78.78,0,0,0-.83.66l-1.46,6c-.11.44.07.66.51.66h1.07a.78.78,0,0,0,.83-.66l.35-1.43H286c-.18,0-.24-.1-.2-.26l.4-1.64a.3.3,0,0,1,.33-.26h2.7c.17,0,.25.08.2.26l-.9,3.75a2.85,2.85,0,0,1-3,2.37h-1.88c-1.58,0-2.21-.82-1.83-2.37Z" transform="translate(-240.32 -132)"/><path class="cls-1" d="M279.24,149.7c0-2.57-3.49-4.75-7.61-4.75S264,147.12,264,149.7c0,1.71,1.55,3.25,3.8,4.09l.19.06-1.27,13.34h4.39l3-13C277,153.52,279.24,151.73,279.24,149.7Z" transform="translate(-240.32 -132)"/><path class="cls-1" d="M261.84,149.7a5,5,0,0,1,0-.52l-4.48-.8,1.51-5.28a2.74,2.74,0,0,1,2.58-1.77l2.58-.28c1.45-.16,2,.32,1.71,1.34l-.59,2.11a12.31,12.31,0,0,1,6.44-1.71c.38,0,.75,0,1.12,0l.64-2.34c1-3.82-1.09-5.49-6.14-4.83l-6,.79c-5,.66-8.28,2.87-9.3,6.36l-2.56,8.75c-.21.7.15,1.12,1,1.28l11.82,2.27-1.46,5.24c-.3,1.06-1.19,1.59-2.57,1.62l-2.56.06c-1.33,0-2-.45-1.7-1.48l.84-2.95c.12-.42-.09-.6-.68-.58l-5.56.24c-.53,0-.91.22-1,.63l-1.14,3.89c-1,3.49,1.15,5.34,6.11,5.34h6a11.18,11.18,0,0,0,6.28-1.6l1-10.35C263.36,153.92,261.84,151.94,261.84,149.7Z" transform="translate(-240.32 -132)"/><path class="cls-1" d="M294.11,132.13l-12.9,1.7a1.1,1.1,0,0,0-1,.78l-2.58,9.62c2.32,1.26,3.81,3.25,3.81,5.47,0,2.73-2.24,5.09-5.49,6.21l-2.56,11.23h11.73c5,0,8.24-2.25,9.31-6.49l5.81-23C301.27,133.41,299.16,131.46,294.11,132.13Zm-1.31,7.5-5.14,20a2.4,2.4,0,0,1-2.59,1.8l-4.91.11,6-22.89,4.94-.54C292.51,137.92,293.11,138.45,292.8,139.63Z" transform="translate(-240.32 -132)"/></svg>